<?xml version="1.0" encoding="UTF-8" standalone="no"?>
<svg width="1081px" height="326px" viewBox="0 0 1081 326" version="1.1" xmlns="http://www.w3.org/2000/svg" xmlns:xlink="http://www.w3.org/1999/xlink" xmlns:sketch="http://www.bohemiancoding.com/sketch/ns">
    <!-- Generator: Sketch 3.4 (15575) - http://www.bohemiancoding.com/sketch -->
    <title>TeamImage</title>
    <desc>Created with Sketch.</desc>
    <defs></defs>
    <g id="Page-1" stroke="none" stroke-width="1" fill="none" fill-rule="evenodd" sketch:type="MSPage">
        <g id="TeamImage" sketch:type="MSLayerGroup">
            <path d="M29.712,252.391 C31.541,279.034 54.624,299.15 81.268,297.314 C107.914,295.483 128.025,272.405 126.192,245.763 C124.363,219.119 101.28,199.004 74.636,200.836 C47.993,202.664 27.88,225.752 29.712,252.391 L29.712,252.391 Z" id="Shape" fill="#7D9392" sketch:type="MSShapeGroup"></path>
            <path d="M99.199,147.31 C125.843,145.476 145.955,122.398 144.123,95.757 C142.294,69.112 119.211,48.998 92.567,50.829 C65.925,52.66 45.816,75.744 47.645,102.386 C49.474,129.027 72.557,149.14 99.199,147.31 L99.199,147.31 Z" id="Shape" fill="#7D9392" sketch:type="MSShapeGroup"></path>
            <path d="M274.511,252.715 C276.34,279.36 299.426,299.474 326.067,297.639 C352.71,295.809 372.822,272.727 370.992,246.086 C369.161,219.444 346.077,199.328 319.438,201.159 C292.791,202.99 272.679,226.074 274.511,252.715 L274.511,252.715 Z" id="Shape" fill="#7D9392" sketch:type="MSShapeGroup"></path>
            <path d="M212.623,222.227 C239.265,220.396 259.379,197.315 257.548,170.674 C255.716,144.032 232.633,123.915 205.994,125.746 C179.348,127.578 159.236,150.661 161.068,177.303 C162.896,203.946 185.981,224.061 212.623,222.227 L212.623,222.227 Z" id="Shape" fill="#7D9392" sketch:type="MSShapeGroup"></path>
            <path d="M721.713,71.571 C748.356,69.74 768.469,46.659 766.638,20.017 C766.155,12.982 764.177,6.411 761.056,0.57 L675.74,0.57 C671.602,8.304 669.511,17.251 670.157,26.646 C671.985,53.29 695.071,73.405 721.713,71.571 L721.713,71.571 Z" id="Shape" fill="#7D9392" sketch:type="MSShapeGroup"></path>
            <path d="M476.134,71.896 C502.775,70.065 522.888,46.984 521.057,20.342 C520.565,13.177 518.524,6.491 515.301,0.571 L430.338,0.571 C426.084,8.379 423.922,17.444 424.578,26.972 C426.407,53.615 449.492,73.729 476.134,71.896 L476.134,71.896 Z" id="Shape" fill="#7D9392" sketch:type="MSShapeGroup"></path>
            <path d="M966.533,71.896 C993.176,70.065 1013.29,46.984 1011.458,20.342 C1010.966,13.177 1008.925,6.491 1005.702,0.571 L920.741,0.571 C916.488,8.379 914.325,17.444 914.98,26.972 C916.809,53.615 939.893,73.729 966.533,71.896 L966.533,71.896 Z" id="Shape" fill="#7D9392" sketch:type="MSShapeGroup"></path>
            <path d="M231.312,71.075 C257.954,69.244 278.067,46.163 276.236,19.521 C275.766,12.687 273.889,6.285 270.921,0.57 L185.067,0.57 C181.107,8.189 179.123,16.957 179.755,26.151 C181.584,52.795 204.669,72.909 231.312,71.075 L231.312,71.075 Z" id="Shape" fill="#7D9392" sketch:type="MSShapeGroup"></path>
            <path d="M344.756,146.491 C371.399,144.656 391.512,121.578 389.681,94.936 C387.85,68.292 364.769,48.176 338.125,50.008 C311.482,51.839 291.369,74.924 293.199,101.565 C295.033,128.207 318.114,148.321 344.756,146.491 L344.756,146.491 Z" id="Shape" fill="#7D9392" sketch:type="MSShapeGroup"></path>
            <path d="M948.602,221.903 C975.248,220.071 995.358,196.991 993.532,170.347 C991.699,143.705 968.615,123.589 941.973,125.418 C915.327,127.251 895.217,150.335 897.048,176.978 C898.879,203.62 921.961,223.734 948.602,221.903 L948.602,221.903 Z" id="Shape" fill="#7D9392" sketch:type="MSShapeGroup"></path>
            <path d="M835.135,147.31 C861.777,145.476 881.892,122.398 880.061,95.757 C878.228,69.112 855.149,48.998 828.502,50.829 C801.86,52.66 781.751,75.744 783.582,102.386 C785.409,129.027 808.494,149.14 835.135,147.31 L835.135,147.31 Z" id="Shape" fill="#7D9392" sketch:type="MSShapeGroup"></path>
            <path d="M764.913,253.21 C766.741,279.852 789.825,299.965 816.468,298.134 C843.109,296.298 863.223,273.223 861.391,246.58 C859.56,219.935 836.479,199.82 809.833,201.651 C783.192,203.482 763.081,226.568 764.913,253.21 L764.913,253.21 Z" id="Shape" fill="#7D9392" sketch:type="MSShapeGroup"></path>
            <path d="M589.575,147.31 C616.22,145.476 636.332,122.398 634.501,95.757 C632.671,69.112 609.589,48.998 582.944,50.829 C556.302,52.66 536.192,75.744 538.022,102.386 C539.852,129.027 562.935,149.14 589.575,147.31 L589.575,147.31 Z" id="Shape" fill="#7D9392" sketch:type="MSShapeGroup"></path>
            <path d="M458.201,221.903 C484.845,220.071 504.957,196.991 503.129,170.347 C501.296,143.705 478.213,123.589 451.57,125.418 C424.926,127.251 404.815,150.335 406.645,176.978 C408.476,203.62 431.559,223.734 458.201,221.903 L458.201,221.903 Z" id="Shape" fill="#7D9392" sketch:type="MSShapeGroup"></path>
            <path d="M520.09,252.391 C521.918,279.034 545.002,299.15 571.645,297.314 C598.291,295.483 618.402,272.405 616.57,245.763 C614.741,219.119 591.657,199.004 565.013,200.836 C538.369,202.664 518.259,225.752 520.09,252.391 L520.09,252.391 Z" id="Shape" fill="#7D9392" sketch:type="MSShapeGroup"></path>
            <path d="M703.021,222.724 C729.664,220.891 749.776,197.812 747.943,171.168 C746.113,144.527 723.031,124.41 696.39,126.241 C669.745,128.073 649.633,151.155 651.465,177.799 C653.295,204.44 676.378,224.553 703.021,222.724 L703.021,222.724 Z" id="Shape" fill="#7D9392" sketch:type="MSShapeGroup"></path>
            <path d="M0.199,0.57 L24.925,0.57 C28.148,6.49 30.189,13.176 30.681,20.341 C32.162,41.894 19.279,61.112 0.199,68.637 L0.199,0.57 L0.199,0.57 Z" id="Shape" fill="#7D9392" sketch:type="MSShapeGroup"></path>
            <path d="M0.199,141.053 C7.324,148.842 11.971,158.998 12.751,170.348 C13.694,184.077 8.8,196.851 0.199,206.269 L0.199,141.053 L0.199,141.053 Z" id="Shape" fill="#7D9392" sketch:type="MSShapeGroup"></path>
            <path d="M143.063,325.691 C142.404,299.953 162.143,278.029 188.082,276.246 C214.721,274.414 237.804,294.533 239.635,321.176 C239.74,322.694 239.764,324.199 239.729,325.692 L143.063,325.692 L143.063,325.691 Z" id="Shape" fill="#7D9392" sketch:type="MSShapeGroup"></path>
            <path d="M387.849,325.691 C387.364,300.091 407.053,278.347 432.88,276.569 C459.523,274.74 482.606,294.856 484.437,321.498 C484.534,322.907 484.556,324.304 484.532,325.691 L387.849,325.691 L387.849,325.691 Z" id="Shape" fill="#7D9392" sketch:type="MSShapeGroup"></path>
            <path d="M633.441,325.691 C632.785,299.953 652.521,278.029 678.456,276.246 C705.1,274.414 728.182,294.531 730.012,321.176 C730.116,322.694 730.141,324.199 730.105,325.692 L633.441,325.692 L633.441,325.691 Z" id="Shape" fill="#7D9392" sketch:type="MSShapeGroup"></path>
            <path d="M878.25,325.691 C877.766,300.091 897.451,278.347 923.281,276.569 C949.924,274.74 973.008,294.856 974.841,321.498 C974.937,322.907 974.959,324.304 974.936,325.691 L878.25,325.691 L878.25,325.691 Z" id="Shape" fill="#7D9392" sketch:type="MSShapeGroup"></path>
            <path d="M1080.154,292.429 C1074.654,295.148 1068.547,296.867 1062.046,297.314 C1035.403,299.15 1012.319,279.034 1010.491,252.391 C1008.66,225.752 1028.77,202.664 1055.417,200.836 C1064.275,200.227 1072.733,202.055 1080.154,205.732 L1080.154,292.429 L1080.154,292.429 Z" id="Shape" fill="#7D9392" sketch:type="MSShapeGroup"></path>
            <path d="M1080.154,147.293 C1080.095,147.297 1080.039,147.305 1079.978,147.31 C1053.336,149.141 1030.25,129.027 1028.423,102.386 C1026.593,75.743 1046.701,52.66 1073.343,50.829 C1075.645,50.67 1077.917,50.687 1080.154,50.847 L1080.154,147.293 L1080.154,147.293 Z" id="Shape" fill="#7D9392" sketch:type="MSShapeGroup"></path>
            <g id="Group" transform="translate(298.000000, 77.000000)" fill="#FFFFFF" sketch:type="MSShapeGroup">
                <path d="M6.226,8.741 C4.68,9.128 3.215,9.635 1.717,9.967 C1.05,10.114 0.687,9.8 0.58,9.318 C0.306,8.084 1.3,5.723 2.487,5.291 C3.941,4.743 5.541,4.333 7.209,3.964 C10.101,3.323 13.149,2.871 15.928,2.254 C17.65,1.873 19.247,1.181 20.693,0.86 C21.638,0.651 22.321,1.626 22.583,2.807 C22.855,4.042 22.641,5.44 21.621,5.835 C20.824,6.183 19.89,6.445 18.946,6.654 C17.666,6.938 16.197,7.151 14.728,7.363 C14.956,7.596 15.063,8.078 15.022,8.425 C14.446,24.773 14.454,33.22 14.512,40.586 C14.502,41.602 13.765,42.216 12.929,42.401 C11.819,42.647 10.429,42.167 10.13,40.823 C9.75,39.107 8.922,23.802 9.729,10.33 L9.957,7.957 C9.957,7.957 7.218,8.493 6.226,8.741 L6.226,8.741 Z" id="Shape"></path>
                <path d="M32.067,16.219 C33.168,21.188 31.072,28.983 25.705,30.174 C25.099,30.308 24.418,30.35 23.713,30.289 C24.216,32.566 25.292,36.455 28.431,35.759 C33.239,34.694 34.582,28.531 35.428,26.117 C35.616,25.534 35.824,25.268 36.077,25.213 C36.279,25.169 36.477,25.342 36.547,25.652 C36.592,25.859 36.599,26.13 36.554,26.41 C35.562,32.712 33.028,38.051 27.206,39.343 C22.854,40.307 20.186,36.664 19.097,31.747 C17.386,24.037 19.527,13.082 24.841,11.903 C25.955,11.657 27.199,11.761 27.922,12.144 C30.106,11.93 31.503,13.683 32.067,16.219 L32.067,16.219 Z M23.923,28.83 C26.908,28.17 29.398,19.037 28.502,15 C28.319,14.172 28.022,13.316 27.265,13.483 C24.379,14.123 22.736,22.523 23.506,28.869 C23.667,28.887 23.771,28.865 23.923,28.83 L23.923,28.83 Z" id="Shape"></path>
                <path d="M50.126,29.645 C50.299,30.422 50.667,30.884 51.124,30.783 C52.185,30.547 53.148,27.457 54.412,21.908 C54.539,21.283 54.877,20.883 55.129,20.828 C55.28,20.794 55.467,20.915 55.547,21.277 C55.593,21.483 55.611,21.805 55.54,22.201 C55.233,24.171 53.925,33.365 50.027,34.229 C48.457,34.577 46.39,34.112 45.529,30.23 C45.473,29.973 45.393,29.609 45.363,29.236 C44.472,33.125 43.041,35.778 41.422,36.137 C38.688,36.742 36.859,34 35.964,29.961 C34.22,22.094 36.081,9.412 41.902,8.12 C43.927,7.671 45.685,9.617 46.142,11.198 L46.448,11.131 C47.714,10.852 49.474,11.6 49.897,13.515 C49.957,13.776 50.013,14.033 50.02,14.303 C50.109,21.178 49.575,27.162 50.126,29.645 L50.126,29.645 Z M45.163,20.43 L45.131,12.618 C44.935,11.738 44.542,10.685 43.326,10.954 C39.935,11.707 39.532,24.502 40.737,29.935 C41.081,31.489 41.555,32.414 42.162,32.281 C44.034,31.866 45.171,26.455 45.163,20.43 L45.163,20.43 Z" id="Shape"></path>
                <path d="M57.562,32.504 C56.55,32.729 55.335,32.292 55.039,30.945 C54.649,29.185 53.968,16.524 54.499,8.151 C54.546,7.162 55.265,6.568 56.075,6.389 C57.29,6.119 58.75,6.72 59.081,8.221 C59.138,8.479 59.197,8.739 59.076,10.828 C59.967,6.938 61.454,4.057 63.829,3.529 C68.235,2.552 68.809,6.825 68.812,10.19 C69.594,5.565 71.071,1.926 73.448,1.398 C76.437,0.734 77.735,3.001 78.158,4.914 C79.432,10.66 77.194,20.93 77.952,24.346 C78.135,25.173 78.442,25.595 79.1,25.449 C81.277,24.965 82.65,16.789 82.966,15.579 C83.093,14.954 83.378,14.564 83.633,14.507 C83.834,14.464 84.031,14.635 84.111,14.998 C84.157,15.205 84.165,15.475 84.093,15.871 C83.786,17.841 83.02,27.078 78.614,28.055 C76.591,28.504 74.345,27.481 73.656,24.376 C72.657,19.874 74.534,9.412 73.777,5.996 C73.605,5.221 73.3,4.799 72.793,4.911 C71.477,5.204 69.383,11.098 69.066,19.966 C69.098,22.51 69.088,25.336 69.148,28.472 C69.15,29.447 68.356,30.167 67.391,30.381 C66.231,30.638 64.843,30.132 64.474,28.476 C63.981,26.25 64.788,13.365 63.801,8.915 C63.549,7.776 63.135,7.106 62.579,7.229 C60.249,7.746 58.484,18.943 59.253,30.555 C59.32,31.571 58.524,32.292 57.562,32.504 L57.562,32.504 Z" id="Shape"></path>
            </g>
            <g id="Group" transform="translate(331.000000, 122.000000)" fill="#000000" sketch:type="MSShapeGroup">
                <path d="M16.991,83.401 L0.991,0.735 L15.141,0.735 L26.374,58.554 L37.687,0.735 L51.841,0.735 L35.558,83.401 L16.991,83.401 L16.991,83.401 Z M44.843,6.351 L42.455,6.351 L28.848,75.448 L23.862,75.448 L10.231,6.351 L7.839,6.351 L21.936,77.791 L30.776,77.791 L44.843,6.351 L44.843,6.351 Z" id="Shape"></path>
                <path d="M59.713,83.401 L59.713,0.667 L98.138,0.667 L98.138,14.232 L73.211,14.232 L73.211,35.278 L91.425,35.278 L91.425,48.819 L73.211,48.819 L73.211,69.834 L98.138,69.834 L98.138,83.401 L59.713,83.401 L59.713,83.401 Z M92.561,8.694 L92.561,6.35 L65.291,6.35 L65.291,77.79 L92.561,77.79 L92.561,75.446 L67.635,75.446 L67.635,43.243 L85.847,43.243 L85.847,40.9 L67.635,40.9 L67.635,8.693 L92.561,8.693 L92.561,8.694 Z" id="Shape"></path>
                <path d="M144.202,83.401 L107.42,83.401 L107.42,0.735 L120.921,0.735 L120.921,69.982 L144.201,69.982 L144.201,83.401 L144.202,83.401 Z M138.625,75.447 L115.342,75.447 L115.342,6.35 L112.999,6.35 L112.999,77.79 L138.625,77.79 L138.625,75.447 L138.625,75.447 Z" id="Shape"></path>
                <path d="M380.627,83.401 L343.842,83.401 L343.842,0.735 L357.342,0.735 L357.342,69.982 L380.627,69.982 L380.627,83.401 L380.627,83.401 Z M375.053,75.447 L351.766,75.447 L351.766,6.35 L349.424,6.35 L349.424,77.79 L375.053,77.79 L375.053,75.447 L375.053,75.447 Z" id="Shape"></path>
                <path d="M389.278,14.305 L374.925,14.305 L374.925,0.736 L417.058,0.736 L417.058,14.305 L402.776,14.305 L402.776,83.402 L389.278,83.402 L389.278,14.305 L389.278,14.305 Z M411.483,6.351 L380.495,6.351 L380.495,8.695 L394.852,8.695 L394.852,77.792 L397.197,77.792 L397.197,8.695 L411.483,8.695 L411.483,6.351 L411.483,6.351 Z" id="Shape"></path>
                <path d="M312.132,83.401 C306.174,83.401 301.13,81.332 296.994,77.191 C292.843,73.05 290.769,68.025 290.769,62.123 L290.769,0.736 L303.987,0.736 L303.987,61.979 C303.987,64.122 304.749,65.941 306.271,67.442 C307.796,68.941 309.63,69.698 311.771,69.698 C313.912,69.698 315.74,68.941 317.234,67.442 C318.734,65.941 319.484,64.122 319.484,61.979 L319.484,0.736 L333.551,0.736 L333.551,62.123 C333.551,68.121 331.458,73.169 327.267,77.262 C323.075,81.356 318.031,83.401 312.132,83.401 L312.132,83.401 Z M327.689,61.974 L327.689,6.351 L325.345,6.351 L325.345,61.974 C325.345,69.403 319.303,75.448 311.876,75.448 C304.45,75.448 298.406,69.403 298.406,61.974 L298.406,6.351 L296.064,6.351 L296.064,61.974 C296.064,70.696 303.158,77.791 311.876,77.791 C320.599,77.791 327.689,70.695 327.689,61.974 L327.689,61.974 Z" id="Shape"></path>
                <path d="M260.128,83.401 C254.173,83.401 249.115,81.32 244.948,77.15 C240.786,72.991 238.704,67.953 238.704,62.048 L238.704,22.162 C238.704,16.21 240.801,11.149 244.99,6.984 C249.179,2.82 254.222,0.735 260.128,0.735 C266.079,0.735 271.122,2.829 275.27,7.018 C279.41,11.21 281.484,16.257 281.484,22.162 L281.484,32.365 L267.488,32.365 L267.488,21.877 C267.488,19.733 266.72,17.899 265.202,16.377 C263.676,14.854 261.84,14.09 259.693,14.09 C257.559,14.09 255.735,14.854 254.235,16.377 C252.741,17.899 251.984,19.734 251.984,21.877 L251.984,61.907 C251.984,64.051 252.741,65.87 254.235,67.372 C255.735,68.873 257.559,69.625 259.693,69.625 C261.839,69.625 263.675,68.873 265.202,67.372 C266.721,65.87 267.488,64.051 267.488,61.907 L267.488,51.772 L281.484,51.772 L281.484,62.047 C281.484,67.998 279.385,73.049 275.198,77.19 C271.003,81.332 265.98,83.401 260.128,83.401 L260.128,83.401 Z M275.678,62.041 L275.678,57.389 L273.336,57.389 L273.336,62.041 C273.336,69.437 267.316,75.447 259.922,75.447 C252.528,75.447 246.513,69.436 246.513,62.041 L246.513,22.102 C246.513,14.706 252.528,8.695 259.922,8.695 C267.316,8.695 273.336,14.707 273.336,22.102 L273.336,26.752 L275.678,26.752 L275.678,22.102 C275.678,13.417 268.606,6.351 259.922,6.351 C251.233,6.351 244.173,13.417 244.173,22.102 L244.173,62.041 C244.173,70.727 251.233,77.791 259.922,77.791 C268.605,77.791 275.678,70.727 275.678,62.041 L275.678,62.041 Z" id="Shape"></path>
                <g transform="translate(150.000000, 0.000000)" id="Shape">
                    <path d="M36.608,7.019 C32.44,2.83 27.38,0.736 21.431,0.736 C15.574,0.736 10.549,2.821 6.36,6.985 C2.171,11.151 0.076,16.211 0.076,22.163 L0.076,61.978 C0.076,67.887 2.151,72.923 6.289,77.121 C10.433,81.309 15.477,83.401 21.432,83.401 C27.333,83.401 32.38,81.326 36.574,77.15 C40.762,72.991 42.855,67.929 42.855,61.978 L42.855,22.163 C42.854,16.258 40.772,11.211 36.608,7.019 L36.608,7.019 Z M36.979,62.061 C36.979,70.733 29.922,77.791 21.245,77.791 C12.569,77.791 5.509,70.732 5.509,62.061 L5.509,22.083 C5.509,13.408 12.57,6.351 21.245,6.351 C29.923,6.351 36.979,13.408 36.979,22.083 L36.979,62.061 L36.979,62.061 Z"></path>
                    <path d="M21.244,8.694 C13.859,8.694 7.856,14.698 7.856,22.082 L7.856,62.06 C7.856,69.439 13.859,75.447 21.244,75.447 C28.626,75.447 34.636,69.439 34.636,62.06 L34.636,22.082 C34.636,14.698 28.626,8.694 21.244,8.694 L21.244,8.694 Z M28.787,61.836 C28.787,63.979 28.035,65.799 26.536,67.3 C25.037,68.801 23.218,69.548 21.073,69.548 C18.93,69.548 17.098,68.801 15.575,67.3 C14.049,65.799 13.289,63.979 13.289,61.836 L13.289,21.878 C13.289,19.734 14.049,17.914 15.575,16.415 C17.098,14.91 18.93,14.162 21.073,14.162 C23.218,14.162 25.038,14.91 26.536,16.415 C28.035,17.914 28.787,19.734 28.787,21.878 L28.787,61.836 L28.787,61.836 Z"></path>
                </g>
            </g>
        </g>
    </g>
</svg>